<svg width="16" height="16" viewBox="0 0 16 16" fill="none" xmlns="http://www.w3.org/2000/svg">
<path d="M7.665 14.33C6.74301 14.33 5.87656 14.155 5.06565 13.8051C4.25474 13.4552 3.54936 12.9803 2.94951 12.3805C2.34966 11.7806 1.87478 11.0753 1.52487 10.2644C1.17496 9.45344 1 8.58699 1 7.665C1 6.74301 1.17496 5.87656 1.52487 5.06565C1.87478 4.25474 2.34966 3.54936 2.94951 2.94951C3.54936 2.34966 4.25474 1.87478 5.06565 1.52487C5.87656 1.17496 6.74301 1 7.665 1C8.38704 1 9.0702 1.10553 9.71449 1.31659C10.3588 1.52765 10.9531 1.82202 11.4974 2.1997L10.531 3.18279C10.1088 2.91619 9.65895 2.70791 9.18129 2.55794C8.70363 2.40798 8.1982 2.333 7.665 2.333C6.18759 2.333 4.92957 2.85231 3.89094 3.89094C2.85231 4.92957 2.333 6.18759 2.333 7.665C2.333 9.14241 2.85231 10.4004 3.89094 11.4391C4.92957 12.4777 6.18759 12.997 7.665 12.997C9.14241 12.997 10.4004 12.4777 11.4391 11.4391C12.4777 10.4004 12.997 9.14241 12.997 7.665C12.997 7.46505 12.9859 7.2651 12.9637 7.06515C12.9415 6.8652 12.9081 6.6708 12.8637 6.48196L13.9468 5.3989C14.069 5.75437 14.1634 6.12094 14.23 6.49863C14.2967 6.87631 14.33 7.2651 14.33 7.665C14.33 8.58699 14.155 9.45344 13.8051 10.2644C13.4552 11.0753 12.9803 11.7806 12.3805 12.3805C11.7806 12.9803 11.0753 13.4552 10.2644 13.8051C9.45344 14.155 8.58699 14.33 7.665 14.33ZM6.7319 10.7309L3.89928 7.89828L4.83238 6.96518L6.7319 8.8647L13.3969 2.18304L14.33 3.11614L6.7319 10.7309Z" fill="#60A0CA"/>
</svg>
