<svg width="16" height="16" viewBox="0 0 16 16" fill="none" xmlns="http://www.w3.org/2000/svg">
<g clip-path="url(#clip0_981_5037)">
<path d="M6.66675 9.33333H8.00008M8.00008 9.33333H9.33341M8.00008 9.33333V10.6667M8.00008 9.33333V8" stroke="#292929" stroke-linecap="round"/>
<path d="M14.6666 7.86519C14.6666 6.11028 14.6666 5.23282 14.1536 4.66247C14.1065 4.61001 14.0565 4.56008 14.0041 4.51289C13.4337 3.99992 12.5563 3.99992 10.8013 3.99992H10.5522C9.78305 3.99992 9.39852 3.99992 9.04018 3.89777C8.84332 3.84165 8.65352 3.76306 8.47465 3.66354C8.14905 3.48237 7.87712 3.21044 7.33325 2.66659L6.96639 2.29975C6.78412 2.11747 6.69298 2.02633 6.59721 1.94693C6.18426 1.60461 5.67769 1.39478 5.14363 1.34484C5.01976 1.33325 4.89087 1.33325 4.63309 1.33325C4.04473 1.33325 3.75055 1.33325 3.50551 1.37949C2.42679 1.58301 1.58301 2.42679 1.37949 3.50551C1.33325 3.75055 1.33325 4.04473 1.33325 4.63309M14.6608 10.6666C14.6369 12.3197 14.5143 13.2568 13.8855 13.8855C13.1045 14.6666 11.8474 14.6666 9.33325 14.6666H6.66658C4.15243 14.6666 2.89535 14.6666 2.1143 13.8855C1.33325 13.1045 1.33325 11.8474 1.33325 9.33325V7.33325" stroke="#292929" stroke-linecap="round"/>
</g>
<defs>
<clipPath id="clip0_981_5037">
<rect width="16" height="16" fill="white"/>
</clipPath>
</defs>
</svg>
