<svg width="16" height="16" viewBox="0 0 16 16" fill="none" xmlns="http://www.w3.org/2000/svg">
<path d="M8.87498 11.3297L11.3269 8.99368C11.45 8.87846 11.5461 8.7432 11.6154 8.58792C11.6846 8.43264 11.7192 8.26454 11.7192 8.0836C11.7192 7.73523 11.5872 7.43524 11.3233 7.18364C11.0593 6.93204 10.7413 6.80624 10.3692 6.80624C10.1269 6.80624 9.88891 6.86835 9.65526 6.99257C9.42161 7.1168 9.16152 7.33105 8.87498 7.63532C8.55768 7.31665 8.28797 7.0988 8.06584 6.98177C7.84373 6.86475 7.61537 6.80624 7.38076 6.80624C7.00864 6.80624 6.69062 6.93204 6.42668 7.18364C6.16274 7.43524 6.03078 7.73523 6.03078 8.0836C6.03078 8.26454 6.06539 8.43264 6.13461 8.58792C6.20384 8.7432 6.29999 8.87846 6.42306 8.99368L8.87498 11.3297ZM9.55285 14.0275C9.33746 14.2292 9.07016 14.33 8.75095 14.33C8.43173 14.33 8.16442 14.2292 7.94903 14.0275L1.34903 7.84863C1.24038 7.74691 1.15505 7.62966 1.09304 7.49689C1.03101 7.36411 1 7.22301 1 7.07358V2.05321C1 1.76605 1.11082 1.51873 1.33246 1.31125C1.55408 1.10375 1.81826 1 2.12498 1H7.48748C7.64228 1 7.79059 1.02791 7.93242 1.08373C8.07424 1.13954 8.19708 1.21605 8.30093 1.31326L14.9009 7.503C15.1211 7.70914 15.2324 7.96096 15.2348 8.25846C15.2372 8.55596 15.1307 8.80553 14.9154 9.00718L9.55285 14.0275ZM8.75095 13.2876L14.1135 8.26723L7.48748 2.05321H2.12498V7.07358L8.75095 13.2876ZM3.99998 4.68625C4.25959 4.68625 4.48074 4.60074 4.66343 4.4297C4.84612 4.25867 4.93746 4.05163 4.93746 3.80858C4.93746 3.56553 4.84612 3.35849 4.66343 3.18746C4.48074 3.01643 4.25959 2.93091 3.99998 2.93091C3.74037 2.93091 3.51922 3.01643 3.33653 3.18746C3.15384 3.35849 3.0625 3.56553 3.0625 3.80858C3.0625 4.05163 3.15384 4.25867 3.33653 4.4297C3.51922 4.60074 3.74037 4.68625 3.99998 4.68625Z" fill="#60A0CA"/>
</svg>
