<svg width="16" height="16" viewBox="0 0 16 16" fill="none" xmlns="http://www.w3.org/2000/svg">
<path d="M7.99875 14.33C7.63218 14.33 7.31836 14.1995 7.05732 13.9384C6.79627 13.6774 6.66575 13.3636 6.66575 12.997H9.33175C9.33175 13.3636 9.20123 13.6774 8.94018 13.9384C8.67914 14.1995 8.36533 14.33 7.99875 14.33ZM5.33275 12.3305V10.9975H10.6648V12.3305H5.33275ZM5.49938 10.331C4.7329 9.87556 4.12472 9.2646 3.67483 8.49813C3.22494 7.73165 3 6.89853 3 5.99875C3 4.61021 3.48599 3.42995 4.45797 2.45797C5.42995 1.48599 6.61021 1 7.99875 1C9.38729 1 10.5676 1.48599 11.5395 2.45797C12.5115 3.42995 12.9975 4.61021 12.9975 5.99875C12.9975 6.89853 12.7726 7.73165 12.3227 8.49813C11.8728 9.2646 11.2646 9.87556 10.4981 10.331H5.49938ZM5.89928 8.998H10.0982C10.5981 8.64253 10.9841 8.20375 11.2563 7.68166C11.5284 7.15957 11.6645 6.5986 11.6645 5.99875C11.6645 4.97678 11.309 4.11033 10.5981 3.3994C9.88717 2.68847 9.02072 2.333 7.99875 2.333C6.97678 2.333 6.11033 2.68847 5.3994 3.3994C4.68847 4.11033 4.333 4.97678 4.333 5.99875C4.333 6.5986 4.46908 7.15957 4.74123 7.68166C5.01339 8.20375 5.3994 8.64253 5.89928 8.998Z" fill="#60A0CA"/>
</svg>
