<svg width="16" height="16" viewBox="0 0 16 16" fill="none" xmlns="http://www.w3.org/2000/svg">
<path d="M3.9925 11.3075L8.98 8.98L11.3075 3.9925L6.32 6.32L3.9925 11.3075ZM7.65 8.315C7.46158 8.315 7.30365 8.25127 7.17619 8.12381C7.04873 7.99635 6.985 7.83842 6.985 7.65C6.985 7.46158 7.04873 7.30365 7.17619 7.17619C7.30365 7.04873 7.46158 6.985 7.65 6.985C7.83842 6.985 7.99635 7.04873 8.12381 7.17619C8.25127 7.30365 8.315 7.46158 8.315 7.65C8.315 7.83842 8.25127 7.99635 8.12381 8.12381C7.99635 8.25127 7.83842 8.315 7.65 8.315ZM7.65 14.3C6.73008 14.3 5.86558 14.1254 5.0565 13.7763C4.24742 13.4272 3.54363 12.9534 2.94512 12.3549C2.34662 11.7564 1.87281 11.0526 1.52369 10.2435C1.17456 9.43442 1 8.56992 1 7.65C1 6.73008 1.17456 5.86558 1.52369 5.0565C1.87281 4.24742 2.34662 3.54363 2.94512 2.94512C3.54363 2.34662 4.24742 1.87281 5.0565 1.52369C5.86558 1.17456 6.73008 1 7.65 1C8.56992 1 9.43442 1.17456 10.2435 1.52369C11.0526 1.87281 11.7564 2.34662 12.3549 2.94512C12.9534 3.54363 13.4272 4.24742 13.7763 5.0565C14.1254 5.86558 14.3 6.73008 14.3 7.65C14.3 8.56992 14.1254 9.43442 13.7763 10.2435C13.4272 11.0526 12.9534 11.7564 12.3549 12.3549C11.7564 12.9534 11.0526 13.4272 10.2435 13.7763C9.43442 14.1254 8.56992 14.3 7.65 14.3ZM7.65 12.97C9.13517 12.97 10.3931 12.4546 11.4239 11.4239C12.4546 10.3931 12.97 9.13517 12.97 7.65C12.97 6.16483 12.4546 4.90688 11.4239 3.87613C10.3931 2.84538 9.13517 2.33 7.65 2.33C6.16483 2.33 4.90688 2.84538 3.87613 3.87613C2.84538 4.90688 2.33 6.16483 2.33 7.65C2.33 9.13517 2.84538 10.3931 3.87613 11.4239C4.90688 12.4546 6.16483 12.97 7.65 12.97Z" fill="#60A0CA"/>
</svg>
