<svg width="16" height="16" viewBox="0 0 16 16" fill="none" xmlns="http://www.w3.org/2000/svg">
<path d="M2.48111 12.8489H3.5364L10.7753 5.60996L9.72004 4.55467L2.48111 11.7936V12.8489ZM1 14.33V11.1826L10.7753 1.42582C10.9234 1.29005 11.087 1.18514 11.266 1.11108C11.4449 1.03703 11.6331 1 11.8306 1C12.0281 1 12.2194 1.03703 12.4046 1.11108C12.5897 1.18514 12.7501 1.29622 12.8859 1.44433L13.9042 2.48111C14.0523 2.61688 14.1603 2.77733 14.2282 2.96247C14.2961 3.14761 14.33 3.33275 14.33 3.51789C14.33 3.71537 14.2961 3.90359 14.2282 4.08256C14.1603 4.26153 14.0523 4.42507 13.9042 4.57318L4.14736 14.33H1ZM10.2384 5.09157L9.72004 4.55467L10.7753 5.60996L10.2384 5.09157Z" fill="#60A0CA"/>
</svg>
